<svg id="Layer_1" data-name="Layer 1" xmlns="http://www.w3.org/2000/svg" viewBox="0 0 173.13 193.18"><defs><style>.cls-1{fill:#fff;}</style></defs><title>01_orderMgmnt</title><path class="cls-1" d="M77.3,189.63a7.55,7.55,0,0,1-7.55,7.55H44.52A30.22,30.22,0,0,1,14.33,167V34.18A30.22,30.22,0,0,1,44.52,4h92.77a30.22,30.22,0,0,1,30.19,30.18V80.59a7.55,7.55,0,1,1-15.1,0V34.18a15.11,15.11,0,0,0-15.09-15.09H44.52A15.11,15.11,0,0,0,29.43,34.18V167a15.11,15.11,0,0,0,15.09,15.1H69.75A7.54,7.54,0,0,1,77.3,189.63ZM129.75,49.28H52a7.55,7.55,0,0,0,0,15.09h77.73a7.55,7.55,0,0,0,0-15.09ZM137.29,87a7.55,7.55,0,0,0-7.54-7.55H52a7.55,7.55,0,0,0,0,15.09h77.73A7.55,7.55,0,0,0,137.29,87ZM52,109.64a7.55,7.55,0,0,0,0,15.1H99.23a7.55,7.55,0,0,0,0-15.1Zm128.82,35.63L139.5,186.54a7.63,7.63,0,0,1-3.32,1.93l-30.45,8.43a7.4,7.4,0,0,1-2,.28,7.55,7.55,0,0,1-7.22-9.74l9-29.7a7.48,7.48,0,0,1,1.89-3.15l41.43-41.34a22.64,22.64,0,0,1,32,32ZM158,146.72,147.36,136l-28,27.89-4.48,14.77,15.32-4.25Zm12.14-22.79a7.56,7.56,0,0,0-10.67,0L158,125.38l10.67,10.67,1.47-1.46A7.55,7.55,0,0,0,170.17,123.93Z" transform="translate(-14.33 -4)"/></svg>
