<svg id="Layer_1" data-name="Layer 1" xmlns="http://www.w3.org/2000/svg" viewBox="0 0 143.74 195.15"><defs><style>.cls-1{fill:#fff;}</style></defs><title>02_commIssues</title><path class="cls-1" d="M72.93,2.67V28.91L28.2,77V197.82h71.86V170.88l24.17-24.17h47.71V2.67ZM160.5,14.11v19a25.51,25.51,0,0,1-19.05-19Zm-76.13,0h19a25.51,25.51,0,0,1-19,19Zm23.68,132.6L88.62,166.14v20.24h-49V81.48L72.93,45.71V63.94L57.08,79.79l8.09,8.09,26-26a1.87,1.87,0,0,1,2.67,0l1,1a17.7,17.7,0,0,1,0,25L72.93,109.67v37Zm2.14-79.62a14.41,14.41,0,1,1,.25,15.58,29.33,29.33,0,0,0-.25-15.58ZM84.37,116.22a25.51,25.51,0,0,1,19,19.05h-19Zm30.69,19.05a37,37,0,0,0-23-28.59l10.76-10.76c.72-.73,1.4-1.48,2-2.26a25.84,25.84,0,1,0-.62-37.37c-.46-.52-.92-1-1.41-1.53l-1-.95a13.31,13.31,0,0,0-17.54-1.15V44.79a36.92,36.92,0,0,0,30.69-30.68h14.75A36.92,36.92,0,0,0,160.5,44.79v59.79a36.94,36.94,0,0,0-30.69,30.69Zm45.44,0H141.45a25.49,25.49,0,0,1,19.05-19Zm0,0" transform="translate(-28.2 -2.67)"/></svg>
