<svg id="Layer_1" data-name="Layer 1" xmlns="http://www.w3.org/2000/svg" xmlns:xlink="http://www.w3.org/1999/xlink" viewBox="0 0 179.73 195.22"><defs><style>.cls-1{fill:#fff;}.cls-2{clip-path:url(#clip-path);}</style><clipPath id="clip-path" transform="translate(-10.61 -2.73)"><rect class="cls-1" x="10.61" y="2.27" width="179.73" height="196.17"/></clipPath></defs><title>03_stockAvail</title><g class="cls-2"><path class="cls-1" d="M190.25,48.75a5.09,5.09,0,0,0-.49-2.18,4.79,4.79,0,0,0-3.34-2.64L102.49,3.22a5,5,0,0,0-4.33,0L13.41,44.3a5,5,0,0,0-2.8,4.29V151.88a4.9,4.9,0,0,0,2.8,4.45l84.75,41.08s0,0,.09,0a1.66,1.66,0,0,1,.37.16s.08,0,.16,0l.37.12s.08,0,.13,0,.28,0,.41.08h.12c.17,0,.37,0,.54,0a2.37,2.37,0,0,0,.53,0H101a1.56,1.56,0,0,0,.41-.08s.08,0,.12,0l.37-.12s.09,0,.17,0a1.66,1.66,0,0,0,.37-.16s0,0,.08,0l85-41.2a5,5,0,0,0,2.8-4.45V48.88c-.08-.05-.08-.09-.08-.13Zm-89.94-35.6,73.5,35.64L146.74,61.94,73.24,26.3Zm0,71.28L26.8,48.79l35.11-17,73.5,35.65ZM20.5,56.74,95.36,93v92L20.5,148.75Zm84.75,128.31V93L140.4,76v24.07a4.94,4.94,0,0,0,9.88,0V71.16l30.08-14.58v92Zm0,0" transform="translate(-10.61 -2.73)"/></g></svg>
