<svg id="Layer_1" data-name="Layer 1" xmlns="http://www.w3.org/2000/svg" viewBox="0 0 192.61 199.52"><defs><style>.cls-1{fill:#fff;}</style></defs><title>04_planning</title><path class="cls-1" d="M165.8,47.45a23.73,23.73,0,1,0-23.62-23.72A23.69,23.69,0,0,0,165.8,47.45Zm0-35.18a11.51,11.51,0,1,1-11.4,11.46,11.47,11.47,0,0,1,11.4-11.46Zm0,0" transform="translate(-2.89)"/><path class="cls-1" d="M26.51,152.07a23.73,23.73,0,1,0,23.62,23.72,23.69,23.69,0,0,0-23.62-23.72Zm0,35.23a11.51,11.51,0,1,1,11.4-11.51,11.47,11.47,0,0,1-11.4,11.51Zm0,0" transform="translate(-2.89)"/><path class="cls-1" d="M75.23,146a6.11,6.11,0,1,0-6.11-6.11A6.13,6.13,0,0,0,75.23,146Zm0,0" transform="translate(-2.89)"/><path class="cls-1" d="M49.06,137.87a6.09,6.09,0,0,0,2.5,11.66,6.34,6.34,0,0,0,2.49-.51A6.09,6.09,0,0,0,57.16,141a6.15,6.15,0,0,0-8.1-3.1Zm0,0" transform="translate(-2.89)"/><path class="cls-1" d="M105.53,139.85a6.12,6.12,0,1,1-6.11-6.11,6.11,6.11,0,0,1,6.11,6.11Zm0,0" transform="translate(-2.89)"/><path class="cls-1" d="M26.51,187.86" transform="translate(-2.89)"/><path class="cls-1" d="M193.7,86.65,170.08,63a6.11,6.11,0,0,0-8.65,0L137.8,86.65a6.12,6.12,0,1,0,8.66,8.66l13.18-13.19V97.9a36,36,0,0,1-36.09,35.79,6.11,6.11,0,0,0,0,12.22,48.22,48.22,0,0,0,48.31-48V82.07l13.19,13.18A6.09,6.09,0,0,0,189.37,97a6.19,6.19,0,0,0,4.33-1.79,6,6,0,0,0,0-8.6Zm0,0" transform="translate(-2.89)"/></svg>
