<svg id="Layer_1" data-name="Layer 1" xmlns="http://www.w3.org/2000/svg" viewBox="0 0 195.26 195.26"><defs><style>.cls-1{fill:#fff;}</style></defs><title>05_warehouse</title><path class="cls-1" d="M46.62,159.5a11.44,11.44,0,1,0,11.44,11.44A11.45,11.45,0,0,0,46.62,159.5Zm0,15.25a3.81,3.81,0,1,1,3.81-3.81,3.82,3.82,0,0,1-3.81,3.81Zm0,0" transform="translate(-2.38 -2.38)"/><path class="cls-1" d="M186.19,159.5h-6.1V77.13a3.82,3.82,0,0,0-3.81-3.82H157.21V21.45a3.82,3.82,0,0,0-3.81-3.82H77.13a3.82,3.82,0,0,0-3.82,3.82V159.5H70.74a26.56,26.56,0,0,0-12.68-12.68v-133A11.45,11.45,0,0,0,46.62,2.38H13.82a11.44,11.44,0,0,0,0,22.88H35.18V146.82a26.69,26.69,0,1,0,35.56,35.56H186.19a11.44,11.44,0,0,0,0-22.88Zm-13.73,0H80.94V80.94h26.69v40.42a3.82,3.82,0,0,0,6.11,3l13-9.72,13,9.72a3.81,3.81,0,0,0,6.1-3V80.94h26.69Zm-57.2-78.56h22.88v32.8L129,106.87a3.83,3.83,0,0,0-4.58,0l-9.15,6.87Zm-7.63-55.68h15.26V47.12l-5.51-3.68a3.81,3.81,0,0,0-4.23,0l-5.52,3.68Zm-7.62,0v29a3.81,3.81,0,0,0,5.93,3.18l9.32-6.22,9.33,6.22a3.82,3.82,0,0,0,5.93-3.18v-29h19.06V73.31H80.94v-48ZM13.82,17.63a3.81,3.81,0,0,1,0-7.62h32.8a3.82,3.82,0,0,1,3.81,3.81v130.7a26.13,26.13,0,0,0-7.63,0V21.45A3.81,3.81,0,0,0,39,17.63ZM46.62,190a19.07,19.07,0,1,1,19.06-19.07A19.09,19.09,0,0,1,46.62,190Zm139.57-15.26H73a27,27,0,0,0,0-7.62H186.19a3.81,3.81,0,1,1,0,7.62Zm0,0" transform="translate(-2.38 -2.38)"/><path class="cls-1" d="M161,151.87a3.82,3.82,0,0,0,3.82-3.81v-7.63a3.82,3.82,0,0,0-7.63,0v7.63a3.82,3.82,0,0,0,3.81,3.81Zm0,0" transform="translate(-2.38 -2.38)"/><path class="cls-1" d="M161,121.36a3.82,3.82,0,1,1-3.81,3.82,3.82,3.82,0,0,1,3.81-3.82Zm0,0" transform="translate(-2.38 -2.38)"/><path class="cls-1" d="M145.77,136.62a3.8,3.8,0,0,0-3.81,3.81v7.63a3.81,3.81,0,0,0,7.62,0v-7.63a3.8,3.8,0,0,0-3.81-3.81Zm0,0" transform="translate(-2.38 -2.38)"/></svg>
