<svg id="Layer_1" data-name="Layer 1" xmlns="http://www.w3.org/2000/svg" viewBox="0 0 195.16 133.05"><defs><style>.cls-1{fill:#fff;}</style></defs><title>06_inTransit</title><path class="cls-1" d="M162.89,133a18.06,18.06,0,0,0-12.72,5.24,17.65,17.65,0,0,0,0,25.28,18.09,18.09,0,0,0,12.72,5.24,17.88,17.88,0,0,0,0-35.76Zm0,27.82a9.94,9.94,0,1,1,0-19.87,9.94,9.94,0,0,1,0,19.87Zm0,0" transform="translate(-3.33 -35.67)"/><path class="cls-1" d="M167.5,73.38a3.85,3.85,0,0,0-2.67-1H144.45a4,4,0,0,0-4,4v32.59a4,4,0,0,0,4,4H176.8a4,4,0,0,0,4-4V87.09a4,4,0,0,0-1.31-2.94Zm5.32,31.55h-24.4V80.26h14.86l9.54,8.58Zm0,0" transform="translate(-3.33 -35.67)"/><path class="cls-1" d="M65.84,133a18,18,0,0,0-12.71,5.24,17.65,17.65,0,0,0,0,25.28,18,18,0,0,0,12.71,5.24,17.88,17.88,0,0,0,0-35.76Zm0,27.82a9.94,9.94,0,1,1,0-19.87,9.94,9.94,0,0,1,0,19.87Zm0,0" transform="translate(-3.33 -35.67)"/><path class="cls-1" d="M39.34,137.84h-8V127.26a4,4,0,0,0-8,0v14.55a4,4,0,0,0,4,4h12a4,4,0,0,0,0-7.94Zm0,0" transform="translate(-3.33 -35.67)"/><path class="cls-1" d="M59.48,116.18a4,4,0,0,0-4-4H7.31a4,4,0,1,0,0,8h48.2a4,4,0,0,0,4-4Zm0,0" transform="translate(-3.33 -35.67)"/><path class="cls-1" d="M15.37,101.83l48.21.28a4,4,0,0,0,4-3.93,3.94,3.94,0,0,0-3.93-4l-48.21-.28h0a4,4,0,0,0,0,8Zm0,0" transform="translate(-3.33 -35.67)"/><path class="cls-1" d="M23.48,83.79H71.69a4,4,0,0,0,0-8H23.48a4,4,0,0,0,0,8Zm0,0" transform="translate(-3.33 -35.67)"/><path class="cls-1" d="M197,78.43,168.57,54.86A4,4,0,0,0,166,54H132.57V39.64a4,4,0,0,0-4-4H27.37a4,4,0,0,0-4,4V68.73a4,4,0,0,0,8,0V43.61h93.31v94.23H92.07a4,4,0,0,0,0,7.94h48.52a4,4,0,1,0,0-7.94h-8V61.9h32l25.91,21.45-.27,54.41h-4.14a4,4,0,1,0,0,7.94h8.07a3.94,3.94,0,0,0,4-3.93l.32-60.24a4.16,4.16,0,0,0-1.47-3.1Zm0,0" transform="translate(-3.33 -35.67)"/></svg>
