<svg id="Layer_1" data-name="Layer 1" xmlns="http://www.w3.org/2000/svg" viewBox="0 0 139.78 198.79"><defs><style>.cls-1{fill:#fff;}</style></defs><title>07_delivered</title><path class="cls-1" d="M97.78,1A69.91,69.91,0,0,0,38.32,107.64L93.8,197a5.83,5.83,0,0,0,5,2.75h0a5.82,5.82,0,0,0,5-2.83l54.06-90.27A69.9,69.9,0,0,0,97.78,1Zm50,99.71L98.66,182.78,48.22,101.5a58.29,58.29,0,1,1,99.59-.79Z" transform="translate(-27.89 -1)"/><path class="cls-1" d="M97.78,35.94a34.95,34.95,0,1,0,34.94,35A35,35,0,0,0,97.78,35.94Zm0,58.32a23.38,23.38,0,1,1,23.33-23.37A23.39,23.39,0,0,1,97.78,94.26Z" transform="translate(-27.89 -1)"/></svg>
