<svg id="Layer_1" data-name="Layer 1" xmlns="http://www.w3.org/2000/svg" viewBox="0 0 199.2 199.2"><defs><style>.cls-1{fill:#fff;}</style></defs><title>08_futureOrders</title><path class="cls-1" d="M25.9,32.12V7.23a6.23,6.23,0,1,1,12.45,0V32.12a6.23,6.23,0,1,1-12.45,0Zm105.82,6.23A6.23,6.23,0,0,0,138,32.12V7.23a6.23,6.23,0,1,0-12.45,0V32.12a6.22,6.22,0,0,0,6.22,6.23ZM200.2,150.4a49.8,49.8,0,1,1-49.8-49.8,49.8,49.8,0,0,1,49.8,49.8Zm-12.45,0a37.35,37.35,0,1,0-37.35,37.35,37.39,37.39,0,0,0,37.35-37.35ZM50.8,75.7H25.9v24.9H50.8ZM25.9,138H50.8v-24.9H25.9ZM63.25,100.6h24.9V75.7H63.25Zm0,37.35h24.9v-24.9H63.25Zm-49.8,11.21V63.25h137v24.9h12.45V39.59A13.59,13.59,0,0,0,149.36,25.9h-5.19v6.22a12.45,12.45,0,1,1-24.9,0V25.9H44.58v6.22a12.46,12.46,0,1,1-24.91,0V25.9H14.49A13.59,13.59,0,0,0,1,39.59V149.16a13.6,13.6,0,0,0,13.49,13.69H88.15V150.4H14.49a1.18,1.18,0,0,1-1-1.24ZM125.5,100.6V75.7H100.6v24.9Zm43.57,49.8H150.4V131.72a6.23,6.23,0,0,0-12.45,0v24.9a6.22,6.22,0,0,0,6.22,6.23h24.9a6.23,6.23,0,1,0,0-12.45Zm0,0" transform="translate(-1 -1)"/></svg>
