<?xml version="1.0" encoding="utf-8"?>
<!-- Generator: Adobe Illustrator 18.1.1, SVG Export Plug-In . SVG Version: 6.00 Build 0)  -->
<svg version="1.1" id="Layer_1" xmlns="http://www.w3.org/2000/svg" xmlns:xlink="http://www.w3.org/1999/xlink" x="0px" y="0px"
	 viewBox="0 0 105 26" enable-background="new 0 0 105 26" xml:space="preserve">
<g>
	<g>
		<path fill="#fff" d="M52.2,4.8h5.5v11.7h5.9l-1.5,4.7h-9.9V4.8z"/>
		<polygon fill="#fff" points="9.1,4.8 9.1,21.2 21.5,21.2 21.5,16.5 14.5,16.5 14.5,15.1 20.5,15.1 20.5,10.9 14.5,10.9
			14.5,9.5 21.5,9.5 21.5,4.8 		"/>
		<path fill="#fff" d="M31.5,16.5c-2.3,0-3.9-1.3-3.9-3.5c0-2.2,1.6-3.5,3.9-3.5h2.5V4.8h-3.8c-5.5,0-8.5,3.5-8.5,8.2
			c0,4.7,3,8.2,8.5,8.2h3.7v-4.7H31.5z"/>
		<path fill="#fff" d="M81.4,4.8H90c3.2,0,5.2,1.8,5.2,4.3c0,2.1-1,3.2-2.4,3.6v0c1.5,0.4,2.9,1.7,2.9,3.8c0,2.9-1.9,4.7-5.7,4.7
			h-8.6V4.8z M86.7,14.6v2.9h1.8c1.1,0,1.6-0.5,1.6-1.4c0-0.9-0.5-1.4-1.6-1.4H86.7z M86.7,8.5v2.5h1.7c1,0,1.4-0.5,1.4-1.2
			c0-0.8-0.4-1.2-1.4-1.2H86.7z"/>
	</g>
	<path fill="#fff" d="M81,21.2h-6L74.4,19h-5.2l-0.6,2.2h-6l5.2-16.4h7.9L81,21.2z M71.9,9.3L71.9,9.3l-1.5,5.6h3L71.9,9.3z"/>
</g>
<g>
	<path fill="#fff" d="M42.9,4.3c-4.8,0-8.6,3.9-8.6,8.6c0,4.8,3.9,8.6,8.6,8.6s8.6-3.9,8.6-8.6C51.5,8.2,47.7,4.3,42.9,4.3z
		 M43.6,14.9C43.4,15,43.1,15,42.9,15c0,0-0.1,0-0.1,0L39,20l2.9-5.2c-0.2-0.1-0.3-0.2-0.4-0.3l-3.7,4.8l3.1-5.6
		c-0.1-0.2-0.1-0.4-0.1-0.7c0,0,0-0.1,0-0.1l-5-3.9l5.3,3c0.1-0.1,0.2-0.3,0.3-0.4l-4.8-3.7l5.6,3.2c0.2-0.1,0.5-0.1,0.7-0.1
		c0,0,0.1,0,0.1,0l3.8-5l-2.9,5.3c0.1,0.1,0.3,0.2,0.4,0.3L48,6.7l-3.1,5.6c0.1,0.2,0.1,0.4,0.1,0.7c0,0,0,0,0,0.1l5,3.8L44.7,14
		c-0.1,0.1-0.2,0.3-0.3,0.4l4.7,3.6L43.6,14.9z"/>
</g>
<g>
	<path fill="#fff" d="M97.4,8.2c-0.9,0-1.6-0.7-1.6-1.6c0-1,0.7-1.6,1.6-1.6c0.9,0,1.6,0.7,1.6,1.6C99.1,7.5,98.4,8.2,97.4,8.2z
		 M97.4,5.1c-0.8,0-1.4,0.6-1.4,1.4C96,7.4,96.6,8,97.4,8c0.8,0,1.4-0.6,1.4-1.4C98.8,5.7,98.2,5.1,97.4,5.1z M97.7,6.6l0.4,0.8
		h-0.3l-0.4-0.8h-0.4v0.8h-0.2V5.6h0.7c0.3,0,0.6,0.2,0.6,0.5C98.2,6.4,98,6.6,97.7,6.6z M97.6,5.8h-0.5v0.6h0.5
		c0.3,0,0.4-0.1,0.4-0.3C97.9,5.9,97.8,5.8,97.6,5.8z"/>
</g>
</svg>
