<?xml version="1.0" encoding="utf-8"?>
<!-- Generator: Adobe Illustrator 18.1.1, SVG Export Plug-In . SVG Version: 6.00 Build 0)  -->
<svg version="1.1" id="Capa_1" xmlns="http://www.w3.org/2000/svg" xmlns:xlink="http://www.w3.org/1999/xlink" x="0px" y="0px"
	 viewBox="-176 87.5 438.5 438.5" enable-background="new -176 87.5 438.5 438.5" xml:space="preserve">
  <defs><style>.cls-1{fill:#007ac9;}</style></defs>
<g>
	<path class="cls-1" d="M221.1,217.7c-3.8-9.1-8.4-16.4-13.7-21.7l-89.1-89.1c-5.3-5.3-12.6-9.9-21.7-13.7c-9.1-3.8-17.5-5.7-25.1-5.7h-182.7
		c-7.6,0-14.1,2.7-19.4,8c-5.3,5.3-8,11.8-8,19.4v383.7c0,7.6,2.7,14.1,8,19.4c5.3,5.3,11.8,8,19.4,8h310.6c7.6,0,14.1-2.7,19.4-8
		c5.3-5.3,8-11.8,8-19.4V242.8C226.9,235.2,225,226.8,221.1,217.7z M80.7,126.3c5.5,1.9,9.4,4,11.7,6.3l89.4,89.4
		c2.3,2.3,4.4,6.2,6.3,11.7H80.7V126.3z M190.3,489.5H-102V124H44.1v118.8c0,7.6,2.7,14.1,8,19.4c5.3,5.3,11.8,8,19.4,8h118.8V489.5
		z"/>
</g>
<text class="cls-1" transform="matrix(1 0 0 1 -84.2221 419.467)" font-family="'OpenSans-Bold'" font-size="144">XLS</text>
</svg>
